<svg data-v-d3f97b9e="" xmlns="http://www.w3.org/2000/svg" viewBox="0 0 313.3212042850262 182"><!----><!----><!----><g data-v-d3f97b9e="" id="9575ebcb-96d6-4c9a-a960-4d5803301d71" fill="white" transform="matrix(5.459508757923784,0,0,5.459508757923784,0.764334860180071,103.12731443209341)"><path d="M0.11 4.26L0.11 4.26L0.45 4.31L0.45 4.31Q0.60 4.31 0.88 4.23L0.88 4.23L0.88 4.23Q2.39 3.75 3.24 3.75L3.24 3.75L3.24 3.75Q4.09 3.75 4.77 4.01L4.77 4.01L4.77 4.01Q5.46 4.27 5.95 4.83L5.95 4.83L5.95 4.83Q6.44 5.39 6.44 6.03L6.44 6.03L6.44 6.03Q6.44 6.68 6.18 7.19L6.18 7.19L6.18 7.19Q5.92 7.70 5.46 8.11L5.46 8.11L5.46 8.11Q4.65 8.79 3.57 9.32L3.57 9.32L3.57 9.32Q4.49 9.81 4.49 11.05L4.49 11.05L4.48 11.65L4.48 11.65Q4.48 12.61 4.98 12.61L4.98 12.61L4.98 12.61Q5.50 12.61 6.05 12.17L6.05 12.17L6.05 12.17Q6.23 12.03 6.27 12.03L6.27 12.03L6.27 12.03Q6.38 12.03 6.38 12.19L6.38 12.19L6.38 12.19Q6.38 12.68 5.77 13.50L5.77 13.50L5.77 13.50Q5.40 13.93 4.94 13.93L4.94 13.93L4.94 13.93Q4.31 13.93 3.90 13.24L3.90 13.24L3.90 13.24Q3.49 12.56 3.49 11.89L3.49 11.89L3.51 11.14L3.51 11.14Q3.51 10.21 3.22 9.95L3.22 9.95L3.22 9.95Q3.07 9.83 2.81 9.70L2.81 9.70L2.37 9.91L2.37 9.91Q2.18 11.27 2.18 12.10L2.18 12.10L2.20 13.31L2.20 13.31Q2.20 13.83 1.90 13.83L1.90 13.83L1.90 13.83Q1.79 13.83 1.57 13.71L1.57 13.71L1.57 13.71Q0.67 13.15 0.36 11.69L0.36 11.69L0.36 11.69Q0.35 11.62 0.35 11.58L0.35 11.58L0.35 11.58Q0.35 11.45 0.55 11.45L0.55 11.45L0.55 11.45Q0.76 11.45 0.90 11.57L0.90 11.57L0.90 11.57Q1.05 11.69 1.12 11.81L1.12 11.81L1.12 11.81Q1.19 11.93 1.23 11.93L1.23 11.93L1.23 11.93Q1.36 11.93 1.36 11.69L1.36 11.69L1.30 11.03L1.30 11.03Q1.34 8.86 1.65 6.54L1.65 6.54L1.65 6.54Q1.75 5.92 1.79 5.75L1.79 5.75L1.79 5.75Q1.83 5.59 1.83 5.51L1.83 5.51L1.83 5.51Q1.83 5.43 1.82 5.39L1.82 5.39L1.82 5.39Q1.27 5.54 1.06 5.76L1.06 5.76L1.06 5.76Q0.84 5.98 0.68 5.98L0.68 5.98L0.68 5.98Q0.52 5.98 0.43 5.95L0.43 5.95L0.43 5.95Q0.34 5.92 0.26 5.83L0.26 5.83L0.26 5.83Q0.18 5.74 0.14 5.70L0.14 5.70L0.14 5.70Q-0.14 5.29-0.14 4.98L-0.14 4.98L-0.14 4.98Q-0.14 4.26 0.11 4.26ZM5.32 5.81L5.32 5.81L5.32 5.81Q5.32 5.46 4.70 5.30L4.70 5.30L4.70 5.30Q4.07 5.14 3.60 5.14L3.60 5.14L3.60 5.14Q3.14 5.14 2.79 5.19L2.79 5.19L2.79 5.19Q2.74 5.36 2.74 6.15L2.74 6.15L2.74 6.15Q2.74 6.94 2.58 8.36L2.58 8.36L2.58 8.36Q4.26 7.73 5.24 6.09L5.24 6.09L5.24 6.09Q5.32 5.92 5.32 5.81ZM12.42 8.16L12.42 8.16L12.42 8.16Q12.42 9.30 11.58 10.08L11.58 10.08L11.58 10.08Q11.03 12.12 10.25 13.33L10.25 13.33L10.25 13.33Q9.79 14.01 9.17 14.01L9.17 14.01L9.17 14.01Q8.85 14.01 8.41 13.76L8.41 13.76L8.41 13.76Q7.25 13.05 7.06 12.11L7.06 12.11L7.06 12.11Q6.86 11.17 6.86 10.15L6.86 10.15L6.86 10.15Q6.86 7.49 8.20 4.69L8.20 4.69L8.20 4.69Q8.37 4.37 8.55 4.37L8.55 4.37L8.55 4.37Q8.58 4.37 9.21 4.62L9.21 4.62L9.21 4.62Q9.56 3.81 10.64 3.81L10.64 3.81L10.64 3.81Q11.20 3.81 11.47 4.02L11.47 4.02L11.47 4.02Q12.07 4.49 12.07 6.43L12.07 6.43L12.07 6.43Q12.07 7.07 11.97 7.92L11.97 7.92L12.31 7.25L12.31 7.25Q12.42 7.73 12.42 8.16ZM10.93 5.42L10.93 5.42L10.93 5.42Q10.93 5.18 10.83 4.96L10.83 4.96L10.83 4.96Q10.72 4.73 10.54 4.73L10.54 4.73L10.54 4.73Q10.36 4.73 10.23 4.89L10.23 4.89L10.23 4.89Q10.09 5.04 9.93 5.32L9.93 5.32L9.93 5.32Q9.13 6.61 9.13 8.44L9.13 8.44L9.13 8.44Q9.13 8.90 9.39 9.40L9.39 9.40L9.39 9.40Q9.65 9.90 10.07 9.90L10.07 9.90L10.07 9.90Q10.14 9.90 10.25 9.87L10.25 9.87L10.25 9.87Q10.93 7.81 10.93 5.42ZM10.00 10.54L10.00 10.54L10.00 10.54Q9.56 10.43 9.20 10.14L9.20 10.14L9.20 10.14Q8.83 9.86 8.67 9.46L8.67 9.46L8.67 9.46Q8.36 8.65 8.36 8.02L8.36 8.02L8.36 8.02Q8.36 7.39 8.44 6.97L8.44 6.97L8.44 6.97Q7.84 8.22 7.84 9.78L7.84 9.78L7.84 9.78Q7.84 11.34 8.19 12.49L8.19 12.49L8.19 12.49Q8.32 12.91 8.58 12.91L8.58 12.91L8.58 12.91Q8.76 12.91 8.92 12.66L8.92 12.66L8.92 12.66Q9.52 11.82 10.00 10.54ZM12.99 5.70L12.99 5.70L12.99 5.70Q12.68 5.84 12.60 5.84L12.60 5.84L12.60 5.84Q12.52 5.84 12.46 5.80L12.46 5.80L12.46 5.80Q12.40 5.77 12.38 5.68L12.38 5.68L12.38 5.68Q12.35 5.60 12.33 5.52L12.33 5.52L12.33 5.52Q12.31 5.45 12.30 5.33L12.30 5.33L12.30 5.33Q12.29 5.21 12.29 5.14L12.29 5.14L12.29 4.76L12.29 4.76Q12.29 4.41 12.43 4.41L12.43 4.41L12.43 4.41Q12.46 4.41 12.52 4.44L12.52 4.44L12.52 4.44Q13.82 3.91 15.23 3.91L15.23 3.91L15.23 3.91Q17.19 3.91 17.93 5.14L17.93 5.14L17.93 5.14Q18.35 5.85 18.35 6.50L18.35 6.50L18.35 6.50Q18.35 7.14 17.76 7.78L17.76 7.78L17.76 7.78Q17.16 8.41 16.06 9.18L16.06 9.18L16.06 9.18Q18.40 9.90 18.82 11.47L18.82 11.47L18.82 11.47Q18.90 11.73 18.90 12.03L18.90 12.03L18.90 12.03Q18.90 13.68 15.92 14.28L15.92 14.28L15.92 14.28Q15.36 14.41 15.01 14.41L15.01 14.41L15.01 14.41Q14.66 14.41 14.39 14.24L14.39 14.24L14.39 14.24Q14.13 14.08 14.13 13.82L14.13 13.82L14.13 13.82Q14.13 13.57 14.29 13.23L14.29 13.23L14.29 13.23Q14.25 12.77 14.25 12.07L14.25 12.07L14.25 12.07Q14.25 11.38 14.42 10.16L14.42 10.16L14.42 10.16Q14.28 10.15 14.19 10.05L14.19 10.05L14.19 10.05Q14.10 9.95 14.10 9.81L14.10 9.81L14.10 9.81Q14.10 9.66 14.15 9.39L14.15 9.39L14.15 9.39Q14.20 9.13 14.21 9.03L14.21 9.03L14.21 9.03Q14.28 8.50 14.63 8.26L14.63 8.26L14.63 8.26Q14.81 5.91 14.85 5.45L14.85 5.45L14.85 5.45Q14.21 5.45 13.75 5.50L13.75 5.50L13.75 5.50Q13.30 5.56 12.99 5.70ZM17.09 6.10L17.09 6.10L17.09 6.10Q17.09 5.91 16.61 5.68L16.61 5.68L16.61 5.68Q16.13 5.45 15.04 5.45L15.04 5.45L15.04 5.45Q15.47 5.68 15.47 6.26L15.47 6.26L15.47 6.37L15.47 6.37Q15.40 6.90 15.40 7.25L15.40 7.25L15.40 7.25Q15.40 7.59 15.41 7.71L15.41 7.71L15.41 7.71Q17.09 6.44 17.09 6.10ZM17.60 12.28L17.60 12.28L17.60 12.28Q17.89 12.11 17.89 11.87L17.89 11.87L17.89 11.87Q17.89 11.62 17.68 11.35L17.68 11.35L17.68 11.35Q17.11 10.63 15.67 10.19L15.67 10.19L15.67 10.19Q15.50 10.14 15.41 10.14L15.41 10.14L15.41 10.14Q15.32 10.14 15.23 10.18L15.23 10.18L15.23 10.18Q14.99 11.52 14.98 12.32L14.98 12.32L14.98 12.32Q15.09 12.03 15.42 11.77L15.42 11.77L15.42 11.77Q15.75 11.52 15.96 11.52L15.96 11.52L15.96 11.52Q16.17 11.52 16.17 11.59L16.17 11.59L16.17 11.59Q16.17 11.69 15.86 11.79L15.86 11.79L15.86 11.79Q15.54 11.90 15.35 12.10L15.35 12.10L15.35 12.10Q15.16 12.31 15.16 12.71L15.16 12.71L15.16 12.71Q15.16 13.10 15.54 13.10L15.54 13.10L15.54 13.10Q16.24 13.10 17.60 12.28ZM25.09 8.16L25.09 8.16L25.09 8.16Q25.09 9.30 24.25 10.08L24.25 10.08L24.25 10.08Q23.70 12.12 22.92 13.33L22.92 13.33L22.92 13.33Q22.46 14.01 21.84 14.01L21.84 14.01L21.84 14.01Q21.52 14.01 21.08 13.76L21.08 13.76L21.08 13.76Q19.92 13.05 19.73 12.11L19.73 12.11L19.73 12.11Q19.53 11.17 19.53 10.15L19.53 10.15L19.53 10.15Q19.53 7.49 20.87 4.69L20.87 4.69L20.87 4.69Q21.04 4.37 21.22 4.37L21.22 4.37L21.22 4.37Q21.25 4.37 21.88 4.62L21.88 4.62L21.88 4.62Q22.23 3.81 23.31 3.81L23.31 3.81L23.31 3.81Q23.87 3.81 24.14 4.02L24.14 4.02L24.14 4.02Q24.74 4.49 24.74 6.43L24.74 6.43L24.74 6.43Q24.74 7.07 24.64 7.92L24.64 7.92L24.98 7.25L24.98 7.25Q25.09 7.73 25.09 8.16ZM23.60 5.42L23.60 5.42L23.60 5.42Q23.60 5.18 23.50 4.96L23.50 4.96L23.50 4.96Q23.39 4.73 23.21 4.73L23.21 4.73L23.21 4.73Q23.03 4.73 22.90 4.89L22.90 4.89L22.90 4.89Q22.76 5.04 22.60 5.32L22.60 5.32L22.60 5.32Q21.80 6.61 21.80 8.44L21.80 8.44L21.80 8.44Q21.80 8.90 22.06 9.40L22.06 9.40L22.06 9.40Q22.32 9.90 22.74 9.90L22.74 9.90L22.74 9.90Q22.81 9.90 22.92 9.87L22.92 9.87L22.92 9.87Q23.60 7.81 23.60 5.42ZM22.67 10.54L22.67 10.54L22.67 10.54Q22.23 10.43 21.87 10.14L21.87 10.14L21.87 10.14Q21.50 9.86 21.34 9.46L21.34 9.46L21.34 9.46Q21.03 8.65 21.03 8.02L21.03 8.02L21.03 8.02Q21.03 7.39 21.11 6.97L21.11 6.97L21.11 6.97Q20.51 8.22 20.51 9.78L20.51 9.78L20.51 9.78Q20.51 11.34 20.86 12.49L20.86 12.49L20.86 12.49Q20.99 12.91 21.25 12.91L21.25 12.91L21.25 12.91Q21.43 12.91 21.59 12.66L21.59 12.66L21.59 12.66Q22.19 11.82 22.67 10.54ZM34.99 3.91L34.99 3.91L34.99 3.91Q36.12 5.95 36.12 8.29L36.12 8.29L36.12 8.29Q36.12 10.63 34.83 12.82L34.83 12.82L34.83 12.82Q34.38 13.59 33.57 13.59L33.57 13.59L33.57 13.59Q32.69 13.59 32.35 12.57L32.35 12.57L32.35 12.57Q32.20 12.11 32.11 11.56L32.11 11.56L32.11 11.56Q32.02 11.00 31.99 10.86L31.99 10.86L31.99 10.86Q31.88 11.09 31.59 11.79L31.59 11.79L31.59 11.79Q31.30 12.50 31.11 12.87L31.11 12.87L31.11 12.87Q30.81 13.45 30.27 13.45L30.27 13.45L30.27 13.45Q29.86 13.45 29.54 13.15L29.54 13.15L29.54 13.15Q29.27 12.87 29.20 12.05L29.20 12.05L29.20 12.05Q29.19 11.79 29.17 11.56L29.17 11.56L29.17 11.56Q29.15 11.34 29.15 11.14L29.15 11.14L29.15 11.14Q29.15 10.95 29.19 10.67L29.19 10.67L29.19 10.67Q29.23 10.39 29.28 10.14L29.28 10.14L29.28 10.14Q29.33 9.88 29.44 9.53L29.44 9.53L29.44 9.53Q29.55 9.18 29.64 8.94L29.64 8.94L29.64 8.94Q29.72 8.69 29.88 8.30L29.88 8.30L29.88 8.30Q30.04 7.91 30.13 7.71L30.13 7.71L30.13 7.71Q30.21 7.50 30.40 7.10L30.40 7.10L30.40 7.10Q30.59 6.69 30.66 6.54L30.66 6.54L30.66 6.54Q30.84 6.10 31.12 5.54L31.12 5.54L31.12 5.54Q30.21 6.51 29.18 6.87L29.18 6.87L29.18 6.87Q28.88 6.97 28.58 6.97L28.58 6.97L28.58 6.97Q28.28 6.97 28.10 6.73L28.10 6.73L28.10 6.73Q27.92 6.50 27.92 6.06L27.92 6.06L27.92 6.06Q27.92 5.63 28.46 5.12L28.46 5.12L28.46 5.12Q28.99 4.62 29.67 4.33L29.67 4.33L29.67 4.33Q30.34 4.03 30.88 4.03L30.88 4.03L30.88 4.03Q31.42 4.03 31.89 4.38L31.89 4.38L31.89 4.38Q32.35 4.73 32.35 5.31L32.35 5.31L32.35 5.31Q32.35 5.52 32.19 5.95L32.19 5.95L32.19 5.95Q32.03 6.38 31.57 7.52L31.57 7.52L31.57 7.52Q30.56 10.02 30.23 11.47L30.23 11.47L30.23 11.47Q30.20 11.58 30.20 11.68L30.20 11.68L30.20 11.68Q30.20 11.79 30.30 11.79L30.30 11.79L30.30 11.79Q30.72 11.79 31.98 7.99L31.98 7.99L31.98 7.99Q31.88 7.87 31.88 7.74L31.88 7.74L31.88 7.74Q31.88 7.56 32.21 7.56L32.21 7.56L32.21 7.56Q32.90 7.56 33.14 7.59L33.14 7.59L33.14 7.59Q33.38 7.62 33.38 7.74L33.38 7.74L33.38 7.74Q33.38 7.87 33.28 7.94L33.28 7.94L33.28 7.94Q33.12 9.58 33.12 10.14L33.12 10.14L33.12 10.14Q33.12 10.70 33.24 11.58L33.24 11.58L33.24 11.58Q33.35 12.46 33.59 12.46L33.59 12.46L33.59 12.46Q33.80 12.46 34.01 11.94L34.01 11.94L34.01 11.94Q34.94 9.88 34.94 7.90L34.94 7.90L34.94 7.90Q34.94 5.92 33.91 4.24L33.91 4.24L33.91 4.24Q33.75 4.02 33.75 3.81L33.75 3.81L33.75 3.81Q33.75 3.47 34.24 3.47L34.24 3.47L34.24 3.47Q34.73 3.47 34.99 3.91ZM30.23 4.70L30.23 4.70L30.23 4.70Q29.29 4.86 28.83 5.32L28.83 5.32L28.83 5.32Q28.67 5.47 28.67 5.60L28.67 5.60L28.67 5.60Q28.67 5.73 28.84 5.73L28.84 5.73L28.84 5.73Q29.30 5.73 30.23 4.70ZM38.50 7.53L38.50 7.53L38.50 7.53Q38.50 8.01 40.45 8.01L40.45 8.01L40.68 8.01L40.68 8.01Q41.06 7.80 41.16 7.80L41.16 7.80L41.16 7.80Q41.40 7.80 41.75 8.18L41.75 8.18L41.75 8.18Q42.11 8.57 42.11 9.07L42.11 9.07L42.11 9.07Q42.11 9.24 41.93 9.24L41.93 9.24L41.93 9.24Q41.87 9.24 41.41 9.16L41.41 9.16L41.41 9.16Q41.27 9.20 40.89 9.31L40.89 9.31L40.89 9.31Q40.50 9.42 40.36 9.46L40.36 9.46L40.36 9.46Q40.22 9.51 39.90 9.62L39.90 9.62L39.90 9.62Q39.58 9.73 39.43 9.81L39.43 9.81L39.43 9.81Q39.28 9.88 39.02 10.02L39.02 10.02L39.02 10.02Q38.77 10.16 38.60 10.32L38.60 10.32L38.60 10.32Q38.07 10.84 37.87 11.13L37.87 11.13L37.87 11.13Q37.51 11.63 37.51 12.17L37.51 12.17L37.51 12.17Q37.51 12.71 37.76 12.98L37.76 12.98L37.76 12.98Q38.01 13.26 38.59 13.26L38.59 13.26L38.59 13.26Q39.17 13.26 39.98 12.97L39.98 12.97L39.98 12.97Q40.78 12.68 40.78 12.14L40.78 12.14L40.78 12.14Q40.78 11.96 40.70 11.78L40.70 11.78L40.70 11.78Q40.61 11.61 40.42 11.61L40.42 11.61L40.42 11.61Q40.24 11.61 39.28 12.17L39.28 12.17L39.28 12.17Q38.32 12.74 38.26 12.74L38.26 12.74L38.26 12.74Q38.21 12.74 38.21 12.62L38.21 12.62L38.21 12.62Q38.21 12.50 38.30 12.33L38.30 12.33L38.30 12.33Q38.71 11.65 39.37 11.24L39.37 11.24L39.37 11.24Q40.03 10.84 40.74 10.84L40.74 10.84L40.74 10.84Q41.45 10.84 41.95 11.26L41.95 11.26L41.95 11.26Q42.45 11.68 42.45 12.21L42.45 12.21L42.45 12.21Q42.45 12.75 42.17 13.12L42.17 13.12L42.17 13.12Q41.31 14.24 38.92 14.24L38.92 14.24L38.92 14.24Q37.44 14.24 36.72 13.09L36.72 13.09L36.72 13.09Q36.33 12.49 36.33 11.93L36.33 11.93L36.33 11.93Q36.33 11.37 36.68 10.56L36.68 10.56L36.68 10.56Q37.03 9.76 37.61 9.35L37.61 9.35L37.61 9.35Q38.19 8.95 39.10 8.62L39.10 8.62L39.10 8.62Q37.74 8.19 37.74 6.90L37.74 6.90L37.74 6.90Q37.74 6.13 38.39 5.59L38.39 5.59L38.39 5.59Q38.93 5.11 39.82 4.60L39.82 4.60L39.82 4.60Q40.71 4.09 40.94 3.94L40.94 3.94L40.94 3.94Q41.16 3.79 41.41 3.79L41.41 3.79L41.41 3.79Q41.66 3.79 41.99 4.17L41.99 4.17L41.99 4.17Q42.15 4.14 42.22 4.14L42.22 4.14L42.22 4.14Q42.55 4.14 42.69 4.42L42.69 4.42L42.69 4.42Q42.80 4.69 42.80 4.77L42.80 4.77L42.80 4.77Q42.80 5.28 40.66 6.13L40.66 6.13L40.66 6.13Q40.57 6.16 40.54 6.16L40.54 6.16L40.54 6.16Q40.46 6.16 40.46 6.04L40.46 6.04L40.46 6.04Q40.46 5.92 40.60 5.50L40.60 5.50L40.14 5.73L40.14 5.73Q39.33 6.15 39.14 6.34L39.14 6.34L39.14 6.34Q38.81 6.75 38.65 7.10L38.65 7.10L38.65 7.10Q38.50 7.45 38.50 7.53ZM42.91 4.26L42.91 4.26L43.25 4.31L43.25 4.31Q43.40 4.31 43.68 4.23L43.68 4.23L43.68 4.23Q45.19 3.75 46.04 3.75L46.04 3.75L46.04 3.75Q46.89 3.75 47.57 4.01L47.57 4.01L47.57 4.01Q48.26 4.27 48.75 4.83L48.75 4.83L48.75 4.83Q49.24 5.39 49.24 6.03L49.24 6.03L49.24 6.03Q49.24 6.68 48.98 7.19L48.98 7.19L48.98 7.19Q48.72 7.70 48.26 8.11L48.26 8.11L48.26 8.11Q47.45 8.79 46.37 9.32L46.37 9.32L46.37 9.32Q47.29 9.81 47.29 11.05L47.29 11.05L47.28 11.65L47.28 11.65Q47.28 12.61 47.78 12.61L47.78 12.61L47.78 12.61Q48.30 12.61 48.85 12.17L48.85 12.17L48.85 12.17Q49.03 12.03 49.07 12.03L49.07 12.03L49.07 12.03Q49.18 12.03 49.18 12.19L49.18 12.19L49.18 12.19Q49.18 12.68 48.57 13.50L48.57 13.50L48.57 13.50Q48.20 13.93 47.74 13.93L47.74 13.93L47.74 13.93Q47.11 13.93 46.70 13.24L46.70 13.24L46.70 13.24Q46.28 12.56 46.28 11.89L46.28 11.89L46.31 11.14L46.31 11.14Q46.31 10.21 46.02 9.95L46.02 9.95L46.02 9.95Q45.86 9.83 45.61 9.70L45.61 9.70L45.16 9.91L45.16 9.91Q44.98 11.27 44.98 12.10L44.98 12.10L45.00 13.31L45.00 13.31Q45.00 13.83 44.70 13.83L44.70 13.83L44.70 13.83Q44.59 13.83 44.37 13.71L44.37 13.71L44.37 13.71Q43.47 13.15 43.16 11.69L43.16 11.69L43.16 11.69Q43.15 11.62 43.15 11.58L43.15 11.58L43.15 11.58Q43.15 11.45 43.35 11.45L43.35 11.45L43.35 11.45Q43.55 11.45 43.70 11.57L43.70 11.57L43.70 11.57Q43.85 11.69 43.92 11.81L43.92 11.81L43.92 11.81Q43.99 11.93 44.03 11.93L44.03 11.93L44.03 11.93Q44.16 11.93 44.16 11.69L44.16 11.69L44.10 11.03L44.10 11.03Q44.14 8.86 44.45 6.54L44.45 6.54L44.45 6.54Q44.55 5.92 44.59 5.75L44.59 5.75L44.59 5.75Q44.63 5.59 44.63 5.51L44.63 5.51L44.63 5.51Q44.63 5.43 44.62 5.39L44.62 5.39L44.62 5.39Q44.07 5.54 43.86 5.76L43.86 5.76L43.86 5.76Q43.64 5.98 43.48 5.98L43.48 5.98L43.48 5.98Q43.32 5.98 43.23 5.95L43.23 5.95L43.23 5.95Q43.13 5.92 43.06 5.83L43.06 5.83L43.06 5.83Q42.98 5.74 42.94 5.70L42.94 5.70L42.94 5.70Q42.66 5.29 42.66 4.98L42.66 4.98L42.66 4.98Q42.66 4.26 42.91 4.26ZM48.12 5.81L48.12 5.81L48.12 5.81Q48.12 5.46 47.50 5.30L47.50 5.30L47.50 5.30Q46.87 5.14 46.40 5.14L46.40 5.14L46.40 5.14Q45.93 5.14 45.58 5.19L45.58 5.19L45.58 5.19Q45.54 5.36 45.54 6.15L45.54 6.15L45.54 6.15Q45.54 6.94 45.37 8.36L45.37 8.36L45.37 8.36Q47.05 7.73 48.03 6.09L48.03 6.09L48.03 6.09Q48.12 5.92 48.12 5.81ZM52.18 5.00L52.18 5.00L52.18 5.00Q52.18 5.07 52.18 5.14L52.18 5.14L52.18 5.32L52.18 5.32Q52.18 6.08 51.53 6.84L51.53 6.84L51.53 6.84Q50.88 7.60 50.09 8.11L50.09 8.11L50.09 8.11Q49.90 8.22 49.77 8.22L49.77 8.22L49.77 8.22Q49.53 8.22 49.38 7.86L49.38 7.86L49.38 7.86Q49.24 7.50 49.24 7.26L49.24 7.26L49.24 7.26Q49.24 7.01 49.42 6.76L49.42 6.76L49.42 6.76Q50.62 5.17 52.07 4.19L52.07 4.19L52.07 4.19Q52.35 3.99 52.70 3.99L52.70 3.99L52.70 3.99Q53.06 3.99 53.48 4.21L53.48 4.21L53.48 4.21Q54.07 4.52 54.07 5.39L54.07 5.39L54.07 5.39Q54.07 5.81 53.88 6.42L53.88 6.42L53.88 6.42Q53.69 7.03 53.53 7.51L53.53 7.51L53.53 7.51Q53.37 7.99 53.34 8.09L53.34 8.09L53.34 8.09Q54.01 7.46 54.94 6.01L54.94 6.01L54.94 6.01Q55.29 5.45 55.43 5.24L55.43 5.24L55.43 5.24Q56.15 4.09 56.31 3.77L56.31 3.77L56.31 3.77Q56.31 3.42 56.52 3.42L56.52 3.42L56.52 3.42Q56.66 3.42 56.85 3.59L56.85 3.59L56.85 3.59Q57.04 3.77 57.14 3.85L57.14 3.85L57.14 3.85Q57.25 3.93 57.25 4.03L57.25 4.03L57.25 4.03Q57.25 4.13 57.16 4.27L57.16 4.27L57.16 4.27Q56.11 6.65 53.70 9.20L53.70 9.20L53.70 9.20Q53.68 9.23 53.68 9.27L53.68 9.27L53.68 9.27Q53.68 9.48 54.15 9.48L54.15 9.48L54.15 9.48Q54.84 9.66 55.23 10.53L55.23 10.53L55.23 10.53Q55.29 10.64 55.52 11.21L55.52 11.21L55.52 11.21Q55.75 11.77 55.89 12.07L55.89 12.07L55.89 12.07Q56.03 12.40 56.24 12.40L56.24 12.40L56.24 12.40Q56.32 12.40 56.43 12.33L56.43 12.33L56.43 12.33Q56.55 12.26 56.59 12.26L56.59 12.26L56.59 12.26Q56.80 12.26 56.80 12.79L56.80 12.79L56.80 12.79Q56.80 13.31 56.73 13.50L56.73 13.50L56.73 13.50Q56.66 13.69 56.30 13.96L56.30 13.96L56.30 13.96Q55.94 14.22 55.71 14.22L55.71 14.22L55.71 14.22Q55.48 14.22 55.08 13.74L55.08 13.74L55.08 13.74Q54.67 13.26 54.26 12.05L54.26 12.05L54.26 12.05Q53.86 10.85 53.73 10.58L53.73 10.58L53.73 10.58Q53.58 10.22 53.36 10.22L53.36 10.22L53.36 10.22Q53.14 10.22 53.00 10.46L53.00 10.46L53.00 10.46Q52.85 10.71 52.63 10.70L52.63 10.70L52.63 10.70Q52.42 11.68 52.42 12.27L52.42 12.27L52.42 12.27Q52.42 12.87 52.46 13.12L52.46 13.12L52.46 13.12Q52.50 13.37 52.50 13.51L52.50 13.51L52.50 13.51Q52.50 13.65 52.30 13.83L52.30 13.83L52.30 13.83Q52.11 14.01 51.92 14.01L51.92 14.01L51.92 14.01Q51.73 14.01 51.45 13.71L51.45 13.71L51.45 13.71Q51.27 13.52 51.25 13.38L51.25 13.38L51.25 13.38Q51.23 13.12 51.20 12.68L51.20 12.68L51.20 12.68Q51.17 12.25 51.17 11.93L51.17 11.93L51.17 11.93Q51.17 10.85 51.41 9.77L51.41 9.77L51.41 9.77Q51.66 8.69 52.11 7.34L52.11 7.34L52.11 7.34Q52.77 5.35 52.77 5.07L52.77 5.07L52.77 5.07Q52.77 4.79 52.51 4.79L52.51 4.79L52.51 4.79Q52.21 4.79 52.18 5.00Z"></path></g><!----><g data-v-d3f97b9e="" id="ef9623f8-e6d6-4b09-9848-b8ad589f646d" transform="matrix(1.0994889153374565,0,0,1.0994889153374565,100.94044753405059,-0.5011915333271304)" stroke="none" fill="white"><path d="M64.45 1.023H37.265v25.606H64.45V1.023zm-20.192 17.42a4.487 4.487 0 1 1 .002-8.974 4.487 4.487 0 0 1-.002 8.974zm13.199 0a4.484 4.484 0 0 1-4.485-4.488 4.485 4.485 0 1 1 8.972 0 4.486 4.486 0 0 1-4.487 4.488zm37.755 39.072c-.401-8.685-4.126-14.752-8.712-18.343a24.334 24.334 0 0 0-11.396-4.913v-3.126h-48.49v3.125a24.322 24.322 0 0 0-11.399 4.915c-4.592 3.59-8.311 9.655-8.708 18.339C3.222 58.664.861 61.755.861 65.427a8.413 8.413 0 0 0 8.411 8.415v-3.737a4.688 4.688 0 0 1-4.678-4.68 4.688 4.688 0 0 1 4.678-4.681 4.683 4.683 0 0 1 4.677 4.681h3.739c-.004-3.757-2.479-6.902-5.878-7.982.435-7.118 3.271-11.364 6.694-14.121 2.59-2.075 5.633-3.203 8.112-3.693v29.249h4.324v19.227c-4.894 1.731-8.405 6.388-8.405 11.872h25.214c0-5.486-3.516-10.141-8.405-11.872V68.877h23.034v19.227c-4.892 1.731-8.405 6.388-8.405 11.872h25.215c0-5.486-3.514-10.141-8.405-11.872V68.877h4.323V39.63c2.477.488 5.519 1.616 8.106 3.691 3.425 2.756 6.262 7.001 6.698 14.12-3.399 1.081-5.882 4.225-5.885 7.984h3.739a4.687 4.687 0 0 1 4.683-4.682c2.579.003 4.669 2.099 4.677 4.682a4.691 4.691 0 0 1-4.677 4.679v3.737c4.644-.003 8.413-3.769 8.413-8.416-.002-3.676-2.37-6.762-5.648-7.91zm-47.97-1.131H42.42v-4.821h4.822v4.821zm0-5.876H42.42v-4.82h4.822v4.82zm6.025 5.876h-4.818v-4.821h4.818v4.821zm0-5.876h-4.818v-4.82h4.818v4.82zm6.027 5.876h-4.825v-4.821h4.825v4.821zm0-5.876h-4.825v-4.82h4.825v4.82zm15.563-40.17A6.85 6.85 0 0 0 68.01 3.49v13.699a6.85 6.85 0 0 0 6.847-6.851zm-41.154 6.851V3.491a6.847 6.847 0 0 0-6.845 6.848 6.848 6.848 0 0 0 6.845 6.85z"></path></g><!----></svg>