<svg data-v-d3f97b9e="" xmlns="http://www.w3.org/2000/svg" viewBox="0 0 60.63362662073744 60"><!----><!----><!----><!----><g data-v-d3f97b9e="" id="b2a074b8-4d2a-4377-92ee-7d67f4f51a41" transform="matrix(0.6063423262998995,0,0,0.6063423262998995,-0.5220615985261681,-0.6202889162170422)" stroke="none" fill="black"><path d="M64.45 1.023H37.265v25.606H64.45V1.023zm-20.192 17.42a4.487 4.487 0 1 1 .002-8.974 4.487 4.487 0 0 1-.002 8.974zm13.199 0a4.484 4.484 0 0 1-4.485-4.488 4.485 4.485 0 1 1 8.972 0 4.486 4.486 0 0 1-4.487 4.488zm37.755 39.072c-.401-8.685-4.126-14.752-8.712-18.343a24.334 24.334 0 0 0-11.396-4.913v-3.126h-48.49v3.125a24.322 24.322 0 0 0-11.399 4.915c-4.592 3.59-8.311 9.655-8.708 18.339C3.222 58.664.861 61.755.861 65.427a8.413 8.413 0 0 0 8.411 8.415v-3.737a4.688 4.688 0 0 1-4.678-4.68 4.688 4.688 0 0 1 4.678-4.681 4.683 4.683 0 0 1 4.677 4.681h3.739c-.004-3.757-2.479-6.902-5.878-7.982.435-7.118 3.271-11.364 6.694-14.121 2.59-2.075 5.633-3.203 8.112-3.693v29.249h4.324v19.227c-4.894 1.731-8.405 6.388-8.405 11.872h25.214c0-5.486-3.516-10.141-8.405-11.872V68.877h23.034v19.227c-4.892 1.731-8.405 6.388-8.405 11.872h25.215c0-5.486-3.514-10.141-8.405-11.872V68.877h4.323V39.63c2.477.488 5.519 1.616 8.106 3.691 3.425 2.756 6.262 7.001 6.698 14.12-3.399 1.081-5.882 4.225-5.885 7.984h3.739a4.687 4.687 0 0 1 4.683-4.682c2.579.003 4.669 2.099 4.677 4.682a4.691 4.691 0 0 1-4.677 4.679v3.737c4.644-.003 8.413-3.769 8.413-8.416-.002-3.676-2.37-6.762-5.648-7.91zm-47.97-1.131H42.42v-4.821h4.822v4.821zm0-5.876H42.42v-4.82h4.822v4.82zm6.025 5.876h-4.818v-4.821h4.818v4.821zm0-5.876h-4.818v-4.82h4.818v4.82zm6.027 5.876h-4.825v-4.821h4.825v4.821zm0-5.876h-4.825v-4.82h4.825v4.82zm15.563-40.17A6.85 6.85 0 0 0 68.01 3.49v13.699a6.85 6.85 0 0 0 6.847-6.851zm-41.154 6.851V3.491a6.847 6.847 0 0 0-6.845 6.848 6.848 6.848 0 0 0 6.845 6.85z"></path></g><!----></svg>