<?xml version="1.0" encoding="UTF-8" standalone="no"?>
<!-- Created with Inkscape (http://www.inkscape.org/) -->

<svg
   xmlns:osb="http://www.openswatchbook.org/uri/2009/osb"
   xmlns:dc="http://purl.org/dc/elements/1.1/"
   xmlns:cc="http://creativecommons.org/ns#"
   xmlns:rdf="http://www.w3.org/1999/02/22-rdf-syntax-ns#"
   xmlns:svg="http://www.w3.org/2000/svg"
   xmlns="http://www.w3.org/2000/svg"
   xmlns:xlink="http://www.w3.org/1999/xlink"
   xmlns:sodipodi="http://sodipodi.sourceforge.net/DTD/sodipodi-0.dtd"
   xmlns:inkscape="http://www.inkscape.org/namespaces/inkscape"
   width="210mm"
   height="297mm"
   viewBox="0 0 210 297"
   version="1.1"
   id="svg3727"
   inkscape:version="0.92.4 (5da689c313, 2019-01-14)"
   sodipodi:docname="robowerk.svg.2019_11_08_09_03_52.0.svg"
   inkscape:export-filename="C:\Users\HP\Desktop\robowerk.png"
   inkscape:export-xdpi="96"
   inkscape:export-ydpi="96">
  <defs
     id="defs3721">
    <linearGradient
       id="linearGradient4626"
       osb:paint="solid">
      <stop
         style="stop-color:#000000;stop-opacity:1;"
         offset="0"
         id="stop4624" />
    </linearGradient>
    <inkscape:path-effect
       effect="simplify"
       id="path-effect4598"
       is_visible="true"
       steps="1"
       threshold="0.000408163"
       smooth_angles="360"
       helper_size="0"
       simplify_individual_paths="false"
       simplify_just_coalesce="false"
       simplifyindividualpaths="false"
       simplifyJustCoalesce="false" />
    <linearGradient
       id="linearGradient4538"
       osb:paint="solid">
      <stop
         style="stop-color:#f5f5f5;stop-opacity:0.81960785;"
         offset="0"
         id="stop4536" />
    </linearGradient>
    <clipPath
       clipPathUnits="userSpaceOnUse"
       id="clipPath3812">
      <use
         x="0"
         y="0"
         xlink:href="#g3808"
         id="use3814"
         width="100%"
         height="100%" />
    </clipPath>
  </defs>
  <sodipodi:namedview
     id="base"
     pagecolor="#ffffff"
     bordercolor="#666666"
     borderopacity="1.0"
     inkscape:pageopacity="0.0"
     inkscape:pageshadow="2"
     inkscape:zoom="1.24"
     inkscape:cx="432.43881"
     inkscape:cy="972.71637"
     inkscape:document-units="mm"
     inkscape:current-layer="layer1"
     showgrid="true"
     inkscape:snap-bbox="true"
     inkscape:object-paths="true"
     inkscape:snap-smooth-nodes="true"
     inkscape:snap-intersection-paths="true"
     inkscape:snap-midpoints="true"
     showguides="true"
     inkscape:guide-bbox="true"
     inkscape:window-width="1366"
     inkscape:window-height="705"
     inkscape:window-x="-4"
     inkscape:window-y="-4"
     inkscape:window-maximized="1"
     inkscape:snap-center="true">
    <sodipodi:guide
       position="214.3125,97.895834"
       orientation="0,1"
       id="guide3832"
       inkscape:locked="false" />
    <inkscape:grid
       type="xygrid"
       id="grid3834" />
    <sodipodi:guide
       position="132.29167,127"
       orientation="0,1"
       id="guide3836"
       inkscape:locked="false" />
    <sodipodi:guide
       position="166.6875,92.604167"
       orientation="0,1"
       id="guide3838"
       inkscape:locked="false" />
    <sodipodi:guide
       position="431.27083,230.1875"
       orientation="1,0"
       id="guide3840"
       inkscape:locked="false" />
    <sodipodi:guide
       position="150.8125,92.604167"
       orientation="0,1"
       id="guide3900"
       inkscape:locked="false" />
  </sodipodi:namedview>
  <metadata
     id="metadata3724">
    <rdf:RDF>
      <cc:Work
         rdf:about="">
        <dc:format>image/svg+xml</dc:format>
        <dc:type
           rdf:resource="http://purl.org/dc/dcmitype/StillImage" />
        <dc:title></dc:title>
      </cc:Work>
    </rdf:RDF>
  </metadata>
  <g
     inkscape:label="Ebene 1"
     inkscape:groupmode="layer"
     id="layer1">
    <ellipse
       style="opacity:0;fill:#000000;fill-opacity:1;stroke-width:0.26458332"
       id="path4618"
       cx="315.23215"
       cy="235.0119"
       rx="24.190477"
       ry="17.386906" />
    <ellipse
       style="opacity:0;fill:#000000;fill-opacity:1;stroke-width:0.26458332"
       id="path4620"
       cx="-94.116074"
       cy="341.97916"
       rx="24.568451"
       ry="32.127975" />
    <ellipse
       style="opacity:0;fill:#000000;fill-opacity:1;stroke-width:0.26458332"
       id="path4630"
       cx="315.61014"
       cy="204.01785"
       rx="23.812502"
       ry="30.994045" />
    <path
       sodipodi:type="star"
       style="opacity:0;fill:#ff0000;fill-opacity:1;stroke-width:0.26458332"
       id="path4638"
       sodipodi:sides="5"
       sodipodi:cx="-123.22024"
       sodipodi:cy="-25.791668"
       sodipodi:r1="114.19358"
       sodipodi:r2="92.384544"
       sodipodi:arg1="1.2443389"
       sodipodi:arg2="1.8726575"
       inkscape:flatsided="true"
       inkscape:rounded="0.17"
       inkscape:randomized="0.021"
       d="m -88.27249,82.234656 c -21.33114,7.594577 -113.5022,-20.631239 -127.1014,-38.875902 -13.59921,-18.244663 -16.1273,-116.04641 -2.57924,-134.437003 13.54806,-18.390591 108.28766,-52.505281 130.047749,-45.263381 21.76009,7.24189 80.3721187,85.360624 80.2139403,108.142868 C -7.849619,-5.416518 -66.941346,74.640079 -88.27249,82.234656 Z"
       inkscape:transform-center-x="-5.7558667"
       inkscape:transform-center-y="0.34489594" />
    <text
       xml:space="preserve"
       style="font-style:normal;font-variant:normal;font-weight:normal;font-stretch:normal;font-size:10.58333302px;line-height:1.25;font-family:dash;-inkscape-font-specification:dash;letter-spacing:0px;word-spacing:0px;fill:#000000;fill-opacity:1;stroke:none;stroke-width:0.26458332"
       x="291.79761"
       y="2.7249105"
       id="text38"><tspan
         sodipodi:role="line"
         id="tspan36"
         x="291.79761"
         y="12.380406"
         style="stroke-width:0.26458332" /><tspan
         sodipodi:role="line"
         x="291.79761"
         y="25.609571"
         style="stroke-width:0.26458332"
         id="tspan40" /></text>
    <ellipse
       style="opacity:1;fill:#ffffff;fill-opacity:1;stroke-width:0.20861515"
       id="path3781"
       cx="201.22113"
       cy="100.06052"
       rx="37.097195"
       ry="9.1648731" />
    <g
       id="g3810"
       clip-path="url(#clipPath3812)"
       transform="translate(5.6617408,-35.427064)">
      <g
         inkscape:label="Clip"
         id="g3808" />
    </g>
    <text
       xml:space="preserve"
       style="font-style:normal;font-variant:normal;font-weight:normal;font-stretch:normal;font-size:7.76111126px;line-height:1.25;font-family:dash;-inkscape-font-specification:dash;letter-spacing:0px;word-spacing:0px;fill:#aa0000;fill-opacity:1;stroke:none;stroke-width:0.26458332"
       x="83.221107"
       y="92.679657"
       id="text4015"><tspan
         sodipodi:role="line"
         id="tspan4013"
         x="83.221107"
         y="92.679657"
         style="font-style:normal;font-variant:normal;font-weight:bold;font-stretch:normal;font-size:5.64444447px;font-family:'Yu Gothic UI';-inkscape-font-specification:'Yu Gothic UI';fill:#aa0000;stroke-width:0.26458332">ROBO-WERK</tspan></text>
    <g
       id="g3879"
       transform="matrix(0.3887019,0,0,0.43332912,72.198254,40.489312)">
      <path
         sodipodi:nodetypes="zzzczzczz"
         inkscape:connector-curvature="0"
         id="rect3829"
         d="m 55.501353,69.254072 c 1.159927,-1.12612 35.958523,-1.12612 37.118381,0 1.16001,1.12612 0.579909,23.648503 0,24.774626 -0.579914,1.126124 -5.219784,7.882842 -5.219784,7.882842 0,0 -4.639744,6.19365 -5.219729,6.75673 -0.579973,0.563 -15.659339,0.563 -16.239326,0 -0.579981,-0.56308 -4.639784,-6.75673 -4.639784,-6.75673 0,0 -5.219785,-6.756718 -5.799758,-7.88284 -0.579929,-1.12612 -1.159907,-23.648508 0,-24.774628 z"
         style="opacity:1;fill:#000000;fill-opacity:1;stroke-width:0.12081002" />
      <path
         sodipodi:nodetypes="szzczzcsss"
         inkscape:connector-curvature="0"
         id="rect3829-6"
         d="m 58.174626,71.909836 c 0.994671,-0.975892 30.835102,-0.975972 31.829493,0 0.994797,0.975988 0.497386,20.495521 0,21.471353 -0.497187,0.975838 -4.475949,6.831831 -4.475949,6.831831 0,0 -3.978647,5.36786 -4.47596,5.8559 -0.497408,0.48778 -13.428174,0.48779 -13.925572,0 -0.497314,-0.48804 -3.978597,-5.8559 -3.978597,-5.8559 0,0 -4.476105,-5.855993 -4.973415,-6.831831 -0.211998,-0.415646 -0.423998,-4.201458 -0.520444,-8.483884 -0.129855,-5.763743 -0.05052,-12.427517 0.520444,-12.987469 z"
         style="opacity:1;fill:#ffffff;fill-opacity:1;stroke-width:0.10414834" />
      <path
         sodipodi:nodetypes="zzzzz"
         inkscape:connector-curvature="0"
         id="rect3857"
         d="m 58.733865,76.932813 c 1.32292,-1.322918 9.26041,-1.322915 10.58333,0 1.32292,1.322915 1.32292,6.614582 0,7.9375 -1.32292,1.322918 -9.26041,1.322915 -10.58333,0 -1.32292,-1.322915 -1.32292,-6.614582 0,-7.9375 z"
         style="opacity:1;fill:#e6e6e6;fill-opacity:1;stroke-width:0.26458332" />
      <path
         sodipodi:nodetypes="zzzzz"
         inkscape:connector-curvature="0"
         id="rect3857-1-8"
         d="m 76.718221,76.403646 c 1.32292,-1.322918 9.260414,-1.322915 10.583334,0 1.32292,1.322915 1.32292,6.614582 0,7.9375 -1.32292,1.322918 -9.260414,1.322916 -10.583334,0 -1.32292,-1.322915 -1.32292,-6.614582 0,-7.9375 z"
         style="opacity:1;fill:#e6e6e6;fill-opacity:1;stroke-width:0.26458332" />
      <path
         sodipodi:nodetypes="zzzzz"
         inkscape:connector-curvature="0"
         id="rect3857-4"
         d="m 66.43823,93.685829 c 1.68234,-0.511809 11.776319,-0.511809 13.458646,0 1.68234,0.511814 1.68234,2.559064 0,3.070874 -1.682327,0.51181 -11.776306,0.51181 -13.458646,0 -1.68235,-0.51181 -1.68235,-2.55906 0,-3.070874 z"
         style="opacity:1;fill:#000000;fill-opacity:1;stroke-width:0.18558422" />
      <path
         sodipodi:nodetypes="cccccccsccsccccccccccccccsccsccccccccccc"
         id="path49-1"
         d="m 81.216148,83.609178 -0.31645,0.560283 c -0.11578,0.207656 -0.36277,0.293856 -0.58275,0.211571 -0.45538,-0.172389 -0.87219,-0.419226 -1.23881,-0.728757 -0.17752,-0.148883 -0.22383,-0.411394 -0.10805,-0.615134 l 0.31645,-0.560283 c -0.26628,-0.313441 -0.474687,-0.677822 -0.613617,-1.073542 h -0.63677 c -0.23155,0 -0.43223,-0.16848 -0.47082,-0.403563 -0.0772,-0.470167 -0.081,-0.963841 0,-1.453599 0.0386,-0.235083 0.23927,-0.407473 0.47082,-0.407473 h 0.63677 c 0.13893,-0.395725 0.347337,-0.760107 0.613617,-1.073548 l -0.31645,-0.560283 c -0.11578,-0.203739 -0.0733,-0.466251 0.10805,-0.615134 0.36662,-0.309531 0.78728,-0.556368 1.23881,-0.728763 0.21998,-0.08228 0.46697,0.0041 0.58275,0.211577 l 0.31645,0.560283 c 0.40522,-0.07444 0.81815,-0.07444 1.22337,0 l 0.31645,-0.560283 c 0.11578,-0.207655 0.36278,-0.293856 0.58275,-0.211577 0.45538,0.172395 0.872177,0.419232 1.238807,0.728763 0.17753,0.148883 0.22383,0.411395 0.10807,0.615134 l -0.31647,0.560283 c 0.26629,0.313441 0.47469,0.677823 0.61362,1.073548 h 0.63678 c 0.23155,0 0.43223,0.168474 0.47081,0.403557 0.0772,0.470162 0.0811,0.963841 0,1.453599 -0.0386,0.235083 -0.23926,0.407479 -0.47081,0.407479 h -0.63678 c -0.13893,0.39572 -0.34733,0.760101 -0.61362,1.073542 l 0.31647,0.560283 c 0.11576,0.20374 0.0733,0.466251 -0.10807,0.615134 -0.36663,0.309531 -0.787277,0.556368 -1.238807,0.728757 -0.21997,0.08228 -0.46697,-0.0041 -0.58275,-0.211571 l -0.31645,-0.560283 c -0.40135,0.07444 -0.81815,0.07444 -1.22337,0 z m -0.40522,-2.307732 c 1.4858,1.159743 3.17999,-0.560283 2.03766,-2.068732 -1.4858,-1.159749 -3.17999,0.560277 -2.03766,2.068732 z"
         style="fill:#aa0000;stroke-width:0.03888519"
         inkscape:connector-curvature="0" />
      <path
         sodipodi:nodetypes="cccccccsccsccccccccccccccsccsccccccccccc"
         id="path49-1-4"
         d="m 63.149245,84.239747 -0.31645,0.560283 c -0.11578,0.207656 -0.36277,0.293856 -0.58275,0.211571 -0.45538,-0.172389 -0.87219,-0.419226 -1.23881,-0.728757 -0.17752,-0.148883 -0.22383,-0.411394 -0.10805,-0.615134 l 0.31645,-0.560283 c -0.26628,-0.313441 -0.47468,-0.677822 -0.61361,-1.073542 h -0.63677 c -0.23155,0 -0.43223,-0.16848 -0.47082,-0.403563 -0.0772,-0.470167 -0.081,-0.963842 0,-1.453599 0.0386,-0.235083 0.23927,-0.407473 0.47082,-0.407473 h 0.63677 c 0.13893,-0.395725 0.34733,-0.760107 0.61361,-1.073548 l -0.31645,-0.560283 c -0.11578,-0.203739 -0.0733,-0.466251 0.10805,-0.615134 0.36662,-0.309531 0.78728,-0.556368 1.23881,-0.728763 0.21998,-0.08228 0.46697,0.0041 0.58275,0.211577 l 0.31645,0.560283 c 0.40522,-0.07444 0.81815,-0.07444 1.22337,0 l 0.31645,-0.560283 c 0.11578,-0.207655 0.36278,-0.293856 0.58275,-0.211577 0.45538,0.172395 0.87218,0.419232 1.23881,0.728763 0.17753,0.148883 0.22383,0.411395 0.10807,0.615134 l -0.31647,0.560283 c 0.26629,0.313441 0.47469,0.677823 0.61362,1.073548 h 0.63678 c 0.23155,0 0.43223,0.168474 0.47081,0.403557 0.0772,0.470162 0.0811,0.963841 0,1.453598 -0.0386,0.235084 -0.23926,0.40748 -0.47081,0.40748 h -0.63678 c -0.13893,0.39572 -0.34733,0.760101 -0.61362,1.073542 l 0.31647,0.560283 c 0.11576,0.20374 0.0733,0.466251 -0.10807,0.615134 -0.36663,0.309531 -0.78728,0.556368 -1.23881,0.728757 -0.21997,0.08228 -0.46697,-0.0041 -0.58275,-0.211571 l -0.31645,-0.560283 c -0.40135,0.07444 -0.81815,0.07444 -1.22337,0 z m -0.40522,-2.307732 c 1.4858,1.159743 3.17999,-0.560283 2.03766,-2.068733 -1.4858,-1.159748 -3.17999,0.560278 -2.03766,2.068733 z"
         style="fill:#aa0000;stroke-width:0.03888519"
         inkscape:connector-curvature="0" />
    </g>
    <path
       style="opacity:1;fill:#000000;fill-opacity:1;stroke-width:0.0527193"
       id="path3918"
       sodipodi:type="arc"
       sodipodi:cx="100.43752"
       sodipodi:cy="69.335197"
       sodipodi:rx="7.9327135"
       sodipodi:ry="2.522614"
       sodipodi:start="0"
       sodipodi:end="6.2345619"
       sodipodi:open="true"
       d="m 108.37024,69.335197 a 7.9327135,2.522614 0 0 1 -7.83629,2.522428 7.9327135,2.522614 0 0 1 -8.026796,-2.461105 7.9327135,2.522614 0 0 1 7.641146,-2.582259 7.9327135,2.522614 0 0 1 8.21256,2.398327"
       transform="matrix(1,0,0.00157117,0.99999877,0,0)" />
    <ellipse
       id="path344"
       cx="100.54168"
       cy="66.48175"
       style="fill:#ffffff;stroke-width:0.12747942"
       rx="8.5989637"
       ry="4.9609361" />
    <path
       id="path49"
       d="m 102.92346,65.688336 -0.10638,0.276041 c -0.0389,0.10231 -0.12194,0.144777 -0.19589,0.10424 -0.15307,-0.08494 -0.29318,-0.206549 -0.41642,-0.359047 -0.0597,-0.07335 -0.0752,-0.202689 -0.0363,-0.303067 l 0.10637,-0.276042 c -0.0895,-0.154429 -0.15956,-0.333952 -0.20626,-0.528919 h -0.21405 c -0.0778,0 -0.1453,-0.083 -0.15827,-0.198827 -0.0259,-0.231643 -0.0272,-0.47487 0,-0.716165 0.013,-0.115822 0.0804,-0.200758 0.15827,-0.200758 h 0.21405 c 0.0467,-0.194967 0.11675,-0.37449 0.20626,-0.528919 l -0.10637,-0.276042 c -0.0389,-0.100379 -0.0247,-0.229713 0.0363,-0.303066 0.12324,-0.152499 0.26464,-0.274112 0.41642,-0.359048 0.074,-0.04054 0.15698,0.002 0.19589,0.10424 l 0.10638,0.276042 c 0.13621,-0.03668 0.27502,-0.03668 0.41124,0 l 0.10637,-0.276042 c 0.0389,-0.102309 0.12195,-0.144777 0.19589,-0.10424 0.15308,0.08494 0.29319,0.206549 0.41643,0.359048 0.0597,0.07335 0.0752,0.202687 0.0363,0.303066 l -0.10638,0.276042 c 0.0895,0.154429 0.15956,0.333952 0.20626,0.528919 h 0.21406 c 0.0778,0 0.14529,0.083 0.15826,0.198827 0.026,0.231644 0.0272,0.47487 0,0.716165 -0.013,0.115822 -0.0804,0.200758 -0.15826,0.200758 h -0.21406 c -0.0467,0.194967 -0.11675,0.37449 -0.20626,0.528919 l 0.10638,0.276042 c 0.0389,0.100378 0.0246,0.229713 -0.0363,0.303067 -0.12324,0.152498 -0.26465,0.27411 -0.41643,0.359047 -0.0739,0.04054 -0.15697,-0.002 -0.19589,-0.10424 l -0.10637,-0.276041 c -0.13492,0.03668 -0.27503,0.03668 -0.41124,0 z m -0.13622,-1.135053 c 0.49946,0.571387 1.06896,-0.276042 0.68497,-1.019232 -0.49945,-0.573317 -1.06896,0.276042 -0.68497,1.019232 z m -1.49575,2.970829 0.43718,0.324299 c 0.13103,0.111959 0.1881,0.349393 0.13622,0.561737 -0.11546,0.467147 -0.34248,0.895687 -0.55264,1.270179 -0.096,0.171802 -0.26205,0.214268 -0.39307,0.102305 l -0.37751,-0.324299 c -0.20756,0.26446 -0.44886,0.474872 -0.712203,0.611925 v 0.648603 c 0,0.223923 -0.10767,0.416958 -0.25557,0.455563 -0.31912,0.08108 -0.65382,0.08494 -0.98464,0 -0.14918,-0.03861 -0.25945,-0.229712 -0.25945,-0.455563 v -0.648603 c -0.26335,-0.138986 -0.50464,-0.347465 -0.7122,-0.611925 l -0.37751,0.32237 c -0.12972,0.11196 -0.29707,0.06949 -0.39307,-0.102309 -0.21016,-0.374491 -0.43199,-0.803032 -0.54745,-1.268246 -0.0519,-0.210411 0.005,-0.447845 0.13621,-0.561737 l 0.432,-0.324299 c -0.0506,-0.403447 -0.0506,-0.818477 0,-1.223852 l -0.432,-0.32623 c -0.13102,-0.111962 -0.1894,-0.349396 -0.13621,-0.559806 0.11546,-0.467147 0.33729,-0.895687 0.54745,-1.270178 0.096,-0.171802 0.26205,-0.21427 0.39307,-0.102309 l 0.37751,0.324301 c 0.20756,-0.26446 0.44885,-0.474869 0.7122,-0.611926 v -0.650531 c 0,-0.221993 0.10638,-0.415028 0.25427,-0.453636 0.31914,-0.08107 0.65513,-0.08494 0.98594,-0.002 0.14918,0.03861 0.25945,0.229714 0.25945,0.455566 v 0.648601 c 0.263343,0.138986 0.504643,0.347465 0.712203,0.611925 l 0.37751,-0.324301 c 0.12972,-0.111962 0.29707,-0.06949 0.39307,0.102309 0.21016,0.374491 0.43069,0.803032 0.54615,1.270179 0.0519,0.210409 10e-4,0.447844 -0.12973,0.561735 l -0.43718,0.324292 c 0.0506,0.405376 0.0506,0.820405 0,1.22578 z m -1.525593,0.407307 c 0.767993,-1.486384 -0.37232,-3.18317 -1.37123,-2.040396 -0.76798,1.486381 0.37232,3.183168 1.37123,2.040396 z m 3.157563,3.526767 -0.10638,0.276043 c -0.0389,0.102309 -0.12194,0.14478 -0.19589,0.104242 -0.15307,-0.08494 -0.29318,-0.206551 -0.41642,-0.359048 -0.0597,-0.07335 -0.0752,-0.202685 -0.0363,-0.303066 l 0.10637,-0.276044 c -0.0895,-0.15443 -0.15956,-0.333953 -0.20626,-0.528917 h -0.21405 c -0.0778,0 -0.1453,-0.08301 -0.15827,-0.198829 -0.0259,-0.231644 -0.0272,-0.474868 0,-0.716163 0.013,-0.115824 0.0804,-0.200757 0.15827,-0.200757 h 0.21405 c 0.0467,-0.194968 0.11675,-0.374491 0.20626,-0.528921 l -0.10637,-0.27604 c -0.0389,-0.10038 -0.0247,-0.229716 0.0363,-0.30307 0.12324,-0.152497 0.26464,-0.274111 0.41642,-0.359048 0.074,-0.04056 0.15698,0.0017 0.19589,0.104242 l 0.10638,0.276039 c 0.13621,-0.03666 0.27502,-0.03666 0.41124,0 l 0.10637,-0.276039 c 0.0389,-0.102309 0.12195,-0.14478 0.19589,-0.104242 0.15308,0.08494 0.29319,0.206551 0.41643,0.359048 0.0597,0.07335 0.0752,0.20269 0.0363,0.30307 l -0.10638,0.27604 c 0.0895,0.15443 0.15956,0.333953 0.20626,0.528921 h 0.21406 c 0.0778,0 0.14529,0.083 0.15826,0.198825 0.026,0.231644 0.0272,0.474868 0,0.716163 -0.013,0.115824 -0.0804,0.200761 -0.15826,0.200761 h -0.21406 c -0.0467,0.194964 -0.11675,0.374487 -0.20626,0.528917 l 0.10638,0.276044 c 0.0389,0.100381 0.0246,0.229712 -0.0363,0.303066 -0.12324,0.152497 -0.26465,0.274111 -0.41643,0.359048 -0.0739,0.04056 -0.15697,-0.0017 -0.19589,-0.104242 l -0.10637,-0.276043 c -0.13492,0.03666 -0.27503,0.03666 -0.41124,0 z m -0.13622,-1.136982 c 0.49946,0.571387 1.06896,-0.27604 0.68497,-1.01923 -0.49945,-0.571387 -1.06896,0.27604 -0.68497,1.01923 z"
       style="fill:#aa0000;stroke-width:0.01582469"
       inkscape:connector-curvature="0" />
  </g>
</svg>
