<?xml version="1.0" encoding="UTF-8" standalone="no"?>
<!-- Created with Inkscape (http://www.inkscape.org/) -->

<svg
   xmlns:osb="http://www.openswatchbook.org/uri/2009/osb"
   xmlns:dc="http://purl.org/dc/elements/1.1/"
   xmlns:cc="http://creativecommons.org/ns#"
   xmlns:rdf="http://www.w3.org/1999/02/22-rdf-syntax-ns#"
   xmlns:svg="http://www.w3.org/2000/svg"
   xmlns="http://www.w3.org/2000/svg"
   xmlns:xlink="http://www.w3.org/1999/xlink"
   xmlns:sodipodi="http://sodipodi.sourceforge.net/DTD/sodipodi-0.dtd"
   xmlns:inkscape="http://www.inkscape.org/namespaces/inkscape"
   width="210mm"
   height="297mm"
   viewBox="0 0 210 297"
   version="1.1"
   id="svg3727"
   inkscape:version="0.92.4 (5da689c313, 2019-01-14)"
   sodipodi:docname="robowerk.svg"
   inkscape:export-filename="C:\Users\HP\Desktop\robowerk.png"
   inkscape:export-xdpi="96"
   inkscape:export-ydpi="96">
  <defs
     id="defs3721">
    <linearGradient
       id="linearGradient4626"
       osb:paint="solid">
      <stop
         style="stop-color:#000000;stop-opacity:1;"
         offset="0"
         id="stop4624" />
    </linearGradient>
    <inkscape:path-effect
       effect="simplify"
       id="path-effect4598"
       is_visible="true"
       steps="1"
       threshold="0.000408163"
       smooth_angles="360"
       helper_size="0"
       simplify_individual_paths="false"
       simplify_just_coalesce="false"
       simplifyindividualpaths="false"
       simplifyJustCoalesce="false" />
    <linearGradient
       id="linearGradient4538"
       osb:paint="solid">
      <stop
         style="stop-color:#f5f5f5;stop-opacity:0.81960785;"
         offset="0"
         id="stop4536" />
    </linearGradient>
    <clipPath
       clipPathUnits="userSpaceOnUse"
       id="clipPath3812">
      <use
         x="0"
         y="0"
         xlink:href="#g3808"
         id="use3814"
         width="100%"
         height="100%" />
    </clipPath>
  </defs>
  <sodipodi:namedview
     id="base"
     pagecolor="#ffffff"
     bordercolor="#666666"
     borderopacity="1.0"
     inkscape:pageopacity="0.0"
     inkscape:pageshadow="2"
     inkscape:zoom="0.81"
     inkscape:cx="432.43881"
     inkscape:cy="762.9916"
     inkscape:document-units="mm"
     inkscape:current-layer="layer1"
     showgrid="true"
     inkscape:snap-bbox="true"
     inkscape:object-paths="true"
     inkscape:snap-smooth-nodes="true"
     inkscape:snap-intersection-paths="true"
     inkscape:snap-midpoints="true"
     showguides="true"
     inkscape:guide-bbox="true"
     inkscape:window-width="1600"
     inkscape:window-height="837"
     inkscape:window-x="-8"
     inkscape:window-y="-8"
     inkscape:window-maximized="1"
     inkscape:snap-center="true">
    <sodipodi:guide
       position="214.3125,97.895834"
       orientation="0,1"
       id="guide3832"
       inkscape:locked="false" />
    <inkscape:grid
       type="xygrid"
       id="grid3834" />
    <sodipodi:guide
       position="132.29167,127"
       orientation="0,1"
       id="guide3836"
       inkscape:locked="false" />
    <sodipodi:guide
       position="166.6875,92.604167"
       orientation="0,1"
       id="guide3838"
       inkscape:locked="false" />
    <sodipodi:guide
       position="431.27083,230.1875"
       orientation="1,0"
       id="guide3840"
       inkscape:locked="false" />
    <sodipodi:guide
       position="150.8125,92.604167"
       orientation="0,1"
       id="guide3900"
       inkscape:locked="false" />
  </sodipodi:namedview>
  <metadata
     id="metadata3724">
    <rdf:RDF>
      <cc:Work
         rdf:about="">
        <dc:format>image/svg+xml</dc:format>
        <dc:type
           rdf:resource="http://purl.org/dc/dcmitype/StillImage" />
        <dc:title />
      </cc:Work>
    </rdf:RDF>
  </metadata>
  <g
     inkscape:label="Ebene 1"
     inkscape:groupmode="layer"
     id="layer1">
    <ellipse
       style="opacity:0;fill:#000000;fill-opacity:1;stroke-width:0.26458332"
       id="path4618"
       cx="315.23215"
       cy="235.0119"
       rx="24.190477"
       ry="17.386906" />
    <ellipse
       style="opacity:0;fill:#000000;fill-opacity:1;stroke-width:0.26458332"
       id="path4620"
       cx="-94.116074"
       cy="341.97916"
       rx="24.568451"
       ry="32.127975" />
    <ellipse
       style="opacity:0;fill:#000000;fill-opacity:1;stroke-width:0.26458332"
       id="path4630"
       cx="315.61014"
       cy="204.01785"
       rx="23.812502"
       ry="30.994045" />
    <path
       sodipodi:type="star"
       style="opacity:0;fill:#ff0000;fill-opacity:1;stroke-width:0.26458332"
       id="path4638"
       sodipodi:sides="5"
       sodipodi:cx="-123.22024"
       sodipodi:cy="-25.791668"
       sodipodi:r1="114.19358"
       sodipodi:r2="92.384544"
       sodipodi:arg1="1.2443389"
       sodipodi:arg2="1.8726575"
       inkscape:flatsided="true"
       inkscape:rounded="0.17"
       inkscape:randomized="0.021"
       d="m -88.27249,82.234656 c -21.33114,7.594577 -113.5022,-20.631239 -127.1014,-38.875902 -13.59921,-18.244663 -16.1273,-116.04641 -2.57924,-134.437003 13.54806,-18.390591 108.28766,-52.505281 130.047749,-45.263381 21.76009,7.24189 80.3721187,85.360624 80.2139403,108.142868 C -7.849619,-5.416518 -66.941346,74.640079 -88.27249,82.234656 Z"
       inkscape:transform-center-x="-5.7558667"
       inkscape:transform-center-y="0.34489594" />
    <text
       xml:space="preserve"
       style="font-style:normal;font-variant:normal;font-weight:normal;font-stretch:normal;font-size:10.58333302px;line-height:1.25;font-family:dash;-inkscape-font-specification:dash;letter-spacing:0px;word-spacing:0px;fill:#000000;fill-opacity:1;stroke:none;stroke-width:0.26458332"
       x="291.79761"
       y="2.7249105"
       id="text38"><tspan
         sodipodi:role="line"
         id="tspan36"
         x="291.79761"
         y="12.380406"
         style="stroke-width:0.26458332" /><tspan
         sodipodi:role="line"
         x="291.79761"
         y="25.609571"
         style="stroke-width:0.26458332"
         id="tspan40" /></text>
    <ellipse
       style="opacity:1;fill:#ffffff;fill-opacity:1;stroke-width:0.20861515"
       id="path3781"
       cx="201.22113"
       cy="100.06052"
       rx="37.097195"
       ry="9.1648731" />
    <g
       id="g3810"
       clip-path="url(#clipPath3812)"
       transform="translate(5.6617408,-35.427064)">
      <g
         inkscape:label="Clip"
         id="g3808" />
    </g>
    <path
       style="opacity:1;fill:#000000;fill-opacity:1;stroke-width:0.19714499"
       d="m 53.02382,58.631019 c 1.91488,-1.816557 59.36131,-1.816557 61.27619,0 1.91488,1.816555 0.95745,38.147628 0,39.964187 -0.95744,1.816564 -8.61696,12.715894 -8.61696,12.715894 0,0 -7.65952,9.99102 -8.61697,10.89934 -0.95743,0.9082 -25.85089,0.9082 -26.80833,0 -0.95745,-0.90832 -7.65952,-10.89934 -7.65952,-10.89934 0,0 -8.61696,-10.89933 -9.57441,-12.715888 -0.95743,-1.816555 -1.91487,-38.147638 0,-39.964193 z"
       id="rect3829"
       inkscape:connector-curvature="0"
       sodipodi:nodetypes="zzzczzczz" />
    <path
       style="opacity:1;fill:#ffffff;fill-opacity:1;stroke-width:0.18220416"
       d="m 55.57485,60.785518 c 1.75046,-1.697249 54.26907,-1.697249 56.01961,0 1.75059,1.69725 0.87529,35.642125 0,37.339378 -0.87528,1.697257 -7.87778,11.880834 -7.87778,11.880834 0,0 -7.00239,9.33466 -7.87765,10.18342 -0.87542,0.84839 -23.6334,0.8484 -24.5088,0 -0.87526,-0.84876 -7.00228,-10.18342 -7.00228,-10.18342 0,0 -7.87786,-10.183577 -8.7531,-11.880826 -0.87524,-1.697249 -1.75079,-35.642136 0,-37.339386 z"
       id="rect3829-6"
       inkscape:connector-curvature="0"
       sodipodi:nodetypes="zzzczzczz" />
    <path
       style="opacity:1;fill:#e6e6e6;fill-opacity:1;stroke-width:0.26458332"
       d="m 64.02918,76.932813 c 1.32292,-1.322918 9.26041,-1.322915 10.58333,0 1.32292,1.322915 1.32292,6.614582 0,7.9375 -1.32292,1.322918 -9.26041,1.322915 -10.58333,0 -1.32292,-1.322915 -1.32292,-6.614582 0,-7.9375 z"
       id="rect3857"
       inkscape:connector-curvature="0"
       sodipodi:nodetypes="zzzzz" />
    <path
       style="opacity:1;fill:#e6e6e6;fill-opacity:1;stroke-width:0.26458332"
       d="m 92.60417,76.403646 c 1.32292,-1.322918 9.26041,-1.322915 10.58333,0 1.32292,1.322915 1.32292,6.614582 0,7.9375 -1.32292,1.322918 -9.26041,1.322916 -10.58333,0 -1.32292,-1.322915 -1.32292,-6.614582 0,-7.9375 z"
       id="rect3857-1-8"
       inkscape:connector-curvature="0"
       sodipodi:nodetypes="zzzzz" />
    <path
       style="opacity:1;fill:#000000;fill-opacity:1;stroke-width:0.18558422"
       d="m 77.02886,98.997356 c 1.68234,-0.511809 11.77632,-0.511809 13.45865,0 1.68234,0.511814 1.68234,2.559064 0,3.070874 -1.68233,0.51181 -11.77631,0.51181 -13.45865,0 -1.68235,-0.51181 -1.68235,-2.55906 0,-3.070874 z"
       id="rect3857-4"
       inkscape:connector-curvature="0"
       sodipodi:nodetypes="zzzzz" />
    <ellipse
       style="opacity:1;fill:#000000;fill-opacity:1;stroke-width:0.41834301"
       id="path3918"
       cx="83.60833"
       cy="54.972393"
       rx="31.750002"
       ry="13.229168" />
    <ellipse
       style="opacity:1;fill:#ffffff;fill-opacity:1;stroke-width:0.38967448"
       id="path3918-7"
       cx="83.466942"
       cy="53.097542"
       rx="30.549999"
       ry="11.929" />
    <path
       inkscape:connector-curvature="0"
       style="fill:#aa0000;stroke-width:0.06683066"
       d="m 95.29375,41.650082 -0.54388,0.962936 c -0.19898,0.356893 -0.62348,0.505035 -1.00154,0.363626 -0.78265,-0.296289 -1.49899,-0.720518 -2.12909,-1.25249 -0.30511,-0.255887 -0.3847,-0.707054 -0.18571,-1.057212 l 0.54387,-0.962937 c -0.45765,-0.538707 -0.81582,-1.164951 -1.0546,-1.84507 h -1.09439 c -0.39796,0 -0.74286,-0.289552 -0.80918,-0.693583 -0.13265,-0.808058 -0.13928,-1.656524 0,-2.498252 0.0664,-0.404029 0.41122,-0.700317 0.80918,-0.700317 h 1.09439 c 0.23878,-0.680118 0.59695,-1.306363 1.0546,-1.84507 l -0.54387,-0.962936 c -0.19899,-0.35016 -0.12603,-0.801326 0.18571,-1.057212 0.6301,-0.531972 1.35306,-0.956202 2.12909,-1.252491 0.37806,-0.14141 0.80256,0.0067 1.00154,0.363626 l 0.54388,0.962938 c 0.69643,-0.127943 1.40613,-0.127943 2.10256,0 L 97.94019,29.2127 c 0.19898,-0.356892 0.62349,-0.505036 1.00154,-0.363626 0.78267,0.296289 1.499,0.720519 2.12911,1.252491 0.30511,0.255886 0.3847,0.707052 0.18573,1.057212 l -0.54389,0.962936 c 0.45766,0.538707 0.81582,1.164952 1.0546,1.84507 h 1.09441 c 0.39796,0 0.74286,0.289553 0.80918,0.693583 0.13266,0.80806 0.13929,1.656524 0,2.498252 -0.0664,0.404031 -0.41122,0.700317 -0.80918,0.700317 h -1.09441 c -0.23878,0.680119 -0.59694,1.306363 -1.0546,1.84507 l 0.54389,0.962937 c 0.19897,0.350158 0.12601,0.801325 -0.18573,1.057212 -0.63011,0.531972 -1.35307,0.956201 -2.12911,1.25249 -0.37805,0.141409 -0.80256,-0.0067 -1.00154,-0.363626 l -0.54388,-0.962936 c -0.68979,0.12794 -1.40613,0.12794 -2.10256,0 z m -0.69644,-3.95949 c 2.55359,1.993211 5.46535,-0.96294 3.50206,-3.555465 -2.55359,-1.999946 -5.46534,0.96294 -3.50206,3.555465 z m -7.64747,10.36336 2.2352,1.131284 c 0.66991,0.39056 0.96173,1.218821 0.69644,1.959546 -0.59031,1.629583 -1.75103,3.124496 -2.82551,4.430859 -0.49083,0.59931 -1.3398,0.747453 -2.00971,0.356889 l -1.93011,-1.131284 c -1.06123,0.922537 -2.29491,1.656525 -3.64134,2.134626 v 2.262566 c 0,0.781124 -0.55051,1.45451 -1.30664,1.589186 -1.63164,0.282821 -3.34287,0.296285 -5.03421,0 -0.76275,-0.134676 -1.32653,-0.80133 -1.32653,-1.589186 V 56.935872 C 70.46099,56.451034 69.2273,55.723783 68.16608,54.801246 l -1.93011,1.12455 c -0.66326,0.39056 -1.51889,0.242418 -2.0097,-0.356892 -1.0745,-1.306364 -2.20869,-2.801273 -2.799,-4.424122 -0.26531,-0.733987 0.0265,-1.562249 0.69643,-1.959546 l 2.20869,-1.131284 c -0.25868,-1.40737 -0.25868,-2.855144 0,-4.269248 L 62.1237,42.646689 c -0.6699,-0.390563 -0.96837,-1.218825 -0.69643,-1.952813 0.59031,-1.629584 1.7245,-3.124493 2.799,-4.430857 0.49081,-0.59931 1.3398,-0.747456 2.0097,-0.356892 l 1.93011,1.131283 c 1.06122,-0.922534 2.29491,-1.656523 3.64135,-2.134626 v -2.269299 c 0,-0.774391 0.54388,-1.447773 1.3,-1.58245 1.63165,-0.282821 3.34951,-0.296288 5.04085,-0.0067 0.76275,0.134677 1.32653,0.801325 1.32653,1.589184 v 2.262564 c 1.34643,0.484835 2.58011,1.212088 3.64134,2.134623 l 1.93011,-1.131284 c 0.66328,-0.390564 1.51888,-0.242417 2.00971,0.356893 1.07448,1.306364 2.20203,2.801274 2.79234,4.430858 0.26531,0.733988 0.007,1.56225 -0.66327,1.959545 l -2.2352,1.131252 c 0.25868,1.414105 0.25868,2.861878 0,4.275981 z m -7.80004,1.420841 c 3.92656,-5.185054 -1.90357,-11.104085 -7.01075,-7.117662 -3.92653,5.18505 1.90358,11.104085 7.01075,7.117662 z m 16.14395,12.302698 -0.54388,0.962939 c -0.19898,0.356894 -0.62348,0.505039 -1.00154,0.363626 -0.78265,-0.296286 -1.49899,-0.720515 -2.12909,-1.252493 -0.30511,-0.255882 -0.3847,-0.707045 -0.18571,-1.057207 l 0.54387,-0.962939 c -0.45765,-0.538706 -0.81582,-1.164951 -1.0546,-1.845064 h -1.09439 c -0.39796,0 -0.74286,-0.289558 -0.80918,-0.693587 -0.13265,-0.808061 -0.13928,-1.656526 0,-2.498251 0.0664,-0.404029 0.41122,-0.700317 0.80918,-0.700317 h 1.09439 c 0.23878,-0.68012 0.59695,-1.306364 1.0546,-1.84507 l -0.54387,-0.962936 c -0.19899,-0.350161 -0.12603,-0.801329 0.18571,-1.057214 0.6301,-0.531974 1.35306,-0.956204 2.12909,-1.252493 0.37806,-0.141409 0.80256,0.0067 1.00154,0.363631 l 0.54388,0.962935 c 0.69643,-0.127942 1.40613,-0.127942 2.10256,0 l 0.54388,-0.962935 c 0.19898,-0.356893 0.62349,-0.50504 1.00154,-0.363631 0.78267,0.296289 1.499,0.720519 2.12911,1.252493 0.30511,0.255885 0.3847,0.707053 0.18573,1.057214 l -0.54389,0.962936 c 0.45766,0.538706 0.81582,1.16495 1.0546,1.84507 h 1.09441 c 0.39796,0 0.74286,0.289552 0.80918,0.693584 0.13266,0.808055 0.13929,1.65652 0,2.498247 -0.0664,0.404033 -0.41122,0.700324 -0.80918,0.700324 h -1.09441 c -0.23878,0.680113 -0.59694,1.306358 -1.0546,1.845064 l 0.54389,0.962939 c 0.19897,0.350162 0.12601,0.801325 -0.18573,1.057207 -0.63011,0.531978 -1.35307,0.956207 -2.12911,1.252493 -0.37805,0.141413 -0.80256,-0.0068 -1.00154,-0.363626 l -0.54388,-0.962939 c -0.68979,0.127945 -1.40613,0.127945 -2.10256,0 z m -0.69644,-3.966222 c 2.55359,1.993214 5.46535,-0.96294 3.50206,-3.55546 -2.55359,-1.993212 -5.46534,0.962935 -3.50206,3.55546 z"
       id="path49" />
    <path
       inkscape:connector-curvature="0"
       style="fill:#aa0000;stroke-width:0.03888519"
       d="m 97.10209,83.609178 -0.31645,0.560283 c -0.11578,0.207656 -0.36277,0.293856 -0.58275,0.211571 -0.45538,-0.172389 -0.87219,-0.419226 -1.23881,-0.728757 -0.17752,-0.148883 -0.22383,-0.411394 -0.10805,-0.615134 l 0.31645,-0.560283 C 94.9062,82.163417 94.6978,81.799036 94.55887,81.403316 H 93.9221 c -0.23155,0 -0.43223,-0.16848 -0.47082,-0.403563 -0.0772,-0.470167 -0.081,-0.963841 0,-1.453599 0.0386,-0.235083 0.23927,-0.407473 0.47082,-0.407473 h 0.63677 c 0.13893,-0.395725 0.34733,-0.760107 0.61361,-1.073548 L 94.85603,77.50485 c -0.11578,-0.203739 -0.0733,-0.466251 0.10805,-0.615134 0.36662,-0.309531 0.78728,-0.556368 1.23881,-0.728763 0.21998,-0.08228 0.46697,0.0041 0.58275,0.211577 l 0.31645,0.560283 c 0.40522,-0.07444 0.81815,-0.07444 1.22337,0 l 0.31645,-0.560283 c 0.11578,-0.207655 0.36278,-0.293856 0.58275,-0.211577 0.45538,0.172395 0.87218,0.419232 1.23881,0.728763 0.17753,0.148883 0.22383,0.411395 0.10807,0.615134 l -0.31647,0.560283 c 0.26629,0.313441 0.47469,0.677823 0.61362,1.073548 h 0.63678 c 0.23155,0 0.43223,0.168474 0.47081,0.403557 0.0772,0.470162 0.0811,0.963841 0,1.453599 -0.0386,0.235083 -0.23926,0.407479 -0.47081,0.407479 h -0.63678 c -0.13893,0.39572 -0.34733,0.760101 -0.61362,1.073542 l 0.31647,0.560283 c 0.11576,0.20374 0.0733,0.466251 -0.10807,0.615134 -0.36663,0.309531 -0.78728,0.556368 -1.23881,0.728757 -0.21997,0.08228 -0.46697,-0.0041 -0.58275,-0.211571 l -0.31645,-0.560283 c -0.40135,0.07444 -0.81815,0.07444 -1.22337,0 z m -0.40522,-2.307732 c 1.4858,1.159743 3.17999,-0.560283 2.03766,-2.068732 -1.4858,-1.159749 -3.17999,0.560277 -2.03766,2.068732 z"
       id="path49-1"
       sodipodi:nodetypes="cccccccsccsccccccccccccccsccsccccccccccc" />
    <path
       inkscape:connector-curvature="0"
       style="fill:#aa0000;stroke-width:0.03888519"
       d="m 68.44456,84.239747 -0.31645,0.560283 c -0.11578,0.207656 -0.36277,0.293856 -0.58275,0.211571 C 67.08998,84.839212 66.67317,84.592375 66.30655,84.282844 66.12903,84.133961 66.08272,83.87145 66.1985,83.66771 l 0.31645,-0.560283 c -0.26628,-0.313441 -0.47468,-0.677822 -0.61361,-1.073542 h -0.63677 c -0.23155,0 -0.43223,-0.16848 -0.47082,-0.403563 -0.0772,-0.470167 -0.081,-0.963842 0,-1.453599 0.0386,-0.235083 0.23927,-0.407473 0.47082,-0.407473 h 0.63677 c 0.13893,-0.395725 0.34733,-0.760107 0.61361,-1.073548 L 66.1985,78.135419 c -0.11578,-0.203739 -0.0733,-0.466251 0.10805,-0.615134 0.36662,-0.309531 0.78728,-0.556368 1.23881,-0.728763 0.21998,-0.08228 0.46697,0.0041 0.58275,0.211577 l 0.31645,0.560283 c 0.40522,-0.07444 0.81815,-0.07444 1.22337,0 l 0.31645,-0.560283 c 0.11578,-0.207655 0.36278,-0.293856 0.58275,-0.211577 0.45538,0.172395 0.87218,0.419232 1.23881,0.728763 0.17753,0.148883 0.22383,0.411395 0.10807,0.615134 l -0.31647,0.560283 c 0.26629,0.313441 0.47469,0.677823 0.61362,1.073548 h 0.63678 c 0.23155,0 0.43223,0.168474 0.47081,0.403557 0.0772,0.470162 0.0811,0.963841 0,1.453598 -0.0386,0.235084 -0.23926,0.40748 -0.47081,0.40748 h -0.63678 c -0.13893,0.39572 -0.34733,0.760101 -0.61362,1.073542 l 0.31647,0.560283 c 0.11576,0.20374 0.0733,0.466251 -0.10807,0.615134 -0.36663,0.309531 -0.78728,0.556368 -1.23881,0.728757 -0.21997,0.08228 -0.46697,-0.0041 -0.58275,-0.211571 l -0.31645,-0.560283 c -0.40135,0.07444 -0.81815,0.07444 -1.22337,0 z m -0.40522,-2.307732 c 1.4858,1.159743 3.17999,-0.560283 2.03766,-2.068733 -1.4858,-1.159748 -3.17999,0.560278 -2.03766,2.068733 z"
       id="path49-1-4"
       sodipodi:nodetypes="cccccccsccsccccccccccccccsccsccccccccccc" />
    <text
       xml:space="preserve"
       style="font-style:normal;font-variant:normal;font-weight:normal;font-stretch:normal;font-size:10.58333302px;line-height:1.25;font-family:dash;-inkscape-font-specification:dash;letter-spacing:0px;word-spacing:0px;fill:#aa0000;fill-opacity:1;stroke:none;stroke-width:0.26458332"
       x="44.613293"
       y="135.25276"
       id="text4015"><tspan
         sodipodi:role="line"
         id="tspan4013"
         x="44.613293"
         y="135.25276"
         style="font-style:normal;font-variant:normal;font-weight:bold;font-stretch:normal;font-size:14.11111069px;font-family:'Yu Gothic UI';-inkscape-font-specification:'Yu Gothic UI';fill:#aa0000;stroke-width:0.26458332">ROBO-WERK</tspan></text>
  </g>
</svg>
